<svg xmlns="http://www.w3.org/2000/svg" xmlns:xlink="http://www.w3.org/1999/xlink" viewBox="0,0,256,256" width="48px" height="48px" fill-rule="evenodd"><g fill="none" fill-rule="evenodd" stroke="none" stroke-width="1" stroke-linecap="butt" stroke-linejoin="miter" stroke-miterlimit="10" stroke-dasharray="" stroke-dashoffset="0" font-family="none" font-weight="none" font-size="none" text-anchor="none" style="mix-blend-mode: normal"><g transform="scale(5.33333,5.33333)"><path d="M38,5c-6.302,0 -21.698,0 -28,0c-1.105,0 -2,0.895 -2,2c0,3.047 0,3 0,3h32c0,0 0,0.047 0,-3c0,-1.105 -0.895,-2 -2,-2zM14,8c-0.552,0 -1,-0.448 -1,-1c0,-0.552 0.448,-1 1,-1c0.552,0 1,0.448 1,1c0,0.552 -0.448,1 -1,1zM34,8c-0.552,0 -1,-0.448 -1,-1c0,-0.552 0.448,-1 1,-1c0.552,0 1,0.448 1,1c0,0.552 -0.448,1 -1,1z" fill-opacity="0.63137" fill="#119ce0"></path><path d="M44,11c0.103,-0.582 -1.409,-2 -2,-2c-7.111,0 -28.889,0 -36,0c-1,0 -2.103,1.418 -2,2c0.823,4.664 3,15 3,15h34c0,0 2.177,-10.336 3,-15z" fill="#1976d2"></path><path d="M41,26h-34c0,0 -2.177,10.336 -3,15c0,1.146 0.792,2 2,2c7.111,0 28.889,0 36,0c0.591,0 2,-0.5 2,-2c-0.823,-4.664 -3,-15 -3,-15z" fill="#1e88e5"></path><path d="M20.534,26c0.984,0.325 1.687,0.85 2.105,1.557c0.433,0.732 0.65,1.55 0.65,2.457c0,1.582 -0.519,2.826 -1.556,3.733c-1.037,0.906 -2.363,1.36 -3.977,1.36c-1.582,0 -2.892,-0.427 -3.93,-1.282c-1.038,-0.855 -1.536,-2.014 -1.497,-3.476l0.036,-0.072h2.242c0,0.914 0.28,1.642 0.841,2.182c0.56,0.541 1.33,0.811 2.308,0.811c0.994,0 1.773,-0.27 2.337,-0.811c0.564,-0.541 0.847,-1.34 0.847,-2.397c0,-1.073 -0.25,-1.864 -0.751,-2.373c-0.501,-0.509 -1.292,-0.763 -2.373,-0.763h-2.051v-0.926zM31.637,26h2.349v8.856h-2.349z" fill="#fafafa"></path><path d="M14.727,22.036h-2.254l-0.024,-0.072c-0.04,-1.312 0.435,-2.427 1.425,-3.345c0.99,-0.918 2.284,-1.377 3.882,-1.377c1.606,0 2.886,0.427 3.84,1.282c0.954,0.855 1.431,2.073 1.431,3.655c0,0.716 -0.217,1.429 -0.65,2.141c-0.433,0.712 -1.083,1.254 -1.95,1.628l0.107,0.052h-4.77v-0.911h2.051c1.042,0 1.779,-0.26 2.212,-0.781c0.433,-0.521 0.65,-1.246 0.65,-2.176c0,-0.994 -0.246,-1.749 -0.739,-2.266c-0.493,-0.517 -1.22,-0.775 -2.182,-0.775c-0.914,0 -1.648,0.268 -2.2,0.805c-0.534,0.518 -0.81,1.202 -0.829,2.14zM33.986,26h-2.349v-6.218l-3.554,0.048v-1.694l5.903,-0.644z" fill="#e0e0e0"></path><path d="M6,9c-1.438,0 -2.103,1.418 -2,2c0.823,4.664 3,15 3,15M41,26c0,0 2.177,-10.336 3,-15c0,-1.625 -1.409,-2 -2,-2" fill="#1976d2"></path></g></g></svg>